<svg width="1440" height="980" viewBox="0 0 1440 980" fill="none" xmlns="http://www.w3.org/2000/svg">
  <rect x="202" y="170" width="1036" height="646" stroke="#111111" stroke-opacity="0.1" stroke-width="2"/>
  <rect x="254" y="218" width="932" height="550" stroke="#111111" stroke-opacity="0.12" stroke-width="2"/>
  <rect x="328" y="288" width="784" height="412" stroke="#111111" stroke-opacity="0.17" stroke-width="2"/>
  <path d="M328 288L254 218" stroke="#111111" stroke-opacity="0.14" stroke-width="2"/>
  <path d="M1112 288L1186 218" stroke="#111111" stroke-opacity="0.14" stroke-width="2"/>
  <path d="M328 700L254 768" stroke="#111111" stroke-opacity="0.12" stroke-width="2"/>
  <path d="M1112 700L1186 768" stroke="#111111" stroke-opacity="0.12" stroke-width="2"/>
  <path d="M254 218H1186" stroke="#111111" stroke-opacity="0.08" stroke-width="2"/>
  <path d="M254 768H1186" stroke="#111111" stroke-opacity="0.08" stroke-width="2"/>
  <path d="M406 364H1034" stroke="#111111" stroke-opacity="0.18" stroke-width="2"/>
  <path d="M406 442H1034" stroke="#111111" stroke-opacity="0.12" stroke-width="2"/>
  <path d="M406 520H1034" stroke="#111111" stroke-opacity="0.12" stroke-width="2"/>
  <path d="M406 598H1034" stroke="#111111" stroke-opacity="0.18" stroke-width="2"/>
  <path d="M484 288V700" stroke="#111111" stroke-opacity="0.12" stroke-width="2"/>
  <path d="M562 288V700" stroke="#111111" stroke-opacity="0.08" stroke-width="2"/>
  <path d="M640 288V700" stroke="#111111" stroke-opacity="0.08" stroke-width="2"/>
  <path d="M720 288V700" stroke="#111111" stroke-opacity="0.16" stroke-width="2"/>
  <path d="M800 288V700" stroke="#111111" stroke-opacity="0.08" stroke-width="2"/>
  <path d="M878 288V700" stroke="#111111" stroke-opacity="0.08" stroke-width="2"/>
  <path d="M956 288V700" stroke="#111111" stroke-opacity="0.12" stroke-width="2"/>
  <rect x="224" y="128" width="96" height="40" rx="20" stroke="#111111" stroke-opacity="0.12"/>
  <rect x="1120" y="128" width="96" height="40" rx="20" stroke="#111111" stroke-opacity="0.12"/>
  <rect x="200" y="424" width="92" height="56" rx="28" stroke="#111111" stroke-opacity="0.12"/>
  <rect x="1148" y="424" width="92" height="56" rx="28" stroke="#111111" stroke-opacity="0.12"/>
  <rect x="670" y="106" width="100" height="44" rx="22" stroke="#111111" stroke-opacity="0.18"/>
  <path d="M224 148H320" stroke="#111111" stroke-opacity="0.08" stroke-width="2"/>
  <path d="M1120 148H1216" stroke="#111111" stroke-opacity="0.08" stroke-width="2"/>
  <path d="M246 452H406" stroke="#111111" stroke-opacity="0.08" stroke-width="2"/>
  <path d="M1034 452H1194" stroke="#111111" stroke-opacity="0.08" stroke-width="2"/>
  <circle cx="720" cy="494" r="130" stroke="#111111" stroke-opacity="0.08" stroke-width="2" stroke-dasharray="10 18"/>
  <circle cx="720" cy="494" r="20" stroke="#111111" stroke-opacity="0.18" stroke-width="2"/>
  <path d="M254 218L328 288L406 364" stroke="#111111" stroke-opacity="0.09" stroke-width="2" stroke-dasharray="10 16"/>
  <path d="M1186 218L1112 288L1034 364" stroke="#111111" stroke-opacity="0.09" stroke-width="2" stroke-dasharray="10 16"/>
  <path d="M254 768L328 700L406 598" stroke="#111111" stroke-opacity="0.09" stroke-width="2" stroke-dasharray="10 16"/>
  <path d="M1186 768L1112 700L1034 598" stroke="#111111" stroke-opacity="0.09" stroke-width="2" stroke-dasharray="10 16"/>
  <path d="M624 130H816" stroke="#111111" stroke-opacity="0.08" stroke-width="2"/>
  <path d="M720 152V286" stroke="#111111" stroke-opacity="0.08" stroke-width="2"/>
</svg>
